<?xml version="1.0" encoding="UTF-8" standalone="no"?>
<svg
   xmlns="http://www.w3.org/2000/svg"
        width="100%"
   height="40px"
   viewBox="0 0 110 -60"
   version="1.1"
   id="svg346"
      >
  <defs
     id="defs340" />
  <metadata
     id="metadata343">
  </metadata>
  <g
     id="layer1">
    <path
       fill="#130400"
       d="m 36.621332,26.063462 v -7.656749 l -7.384357,-3.453422 3.876933,-4.539239 -5.082125,-5.4337516 -1.44205,3.3254333 0.05608,-3.1941009 -6.436934,2.4761141 0.163824,4.1700051 1.095458,-0.344022 1.134541,14.707297 4.538922,-0.803642 -0.0061,-4.908942 z"
       id="path4"
       style="stroke-width:0.433393" />
    <path
       fill="#ffffff"
       d="m 21.420375,8.6583158 3.912051,-1.4036389 0.238434,4.8608731 2.88134,-4.8789643 2.815803,3.2312363 -3.935731,5.002186 8.102818,3.865007 v 4.449304 l -9.413808,-5.674512 0.01657,5.944785 -2.434869,0.401587 -1.039394,-14.8795414 -1.095457,0.3444718 z"
       id="path6"
       style="stroke-width:0.433393" />
    <path
       fill="#130400"
       d="m 51.081721,5.7149575 h -4.264179 l -0.11966,0.8440864 h -4.486429 l -2.095766,15.4476541 5.114098,0.972074 0.283032,-2.221074 1.336265,2.976196 0.814781,-1.896581 0.297638,3.112744 5.800193,1.2333 z"
       id="path8"
       style="stroke-width:0.433393" />
    <path
       fill="#ffffff"
       d="m 47.939046,7.1399966 h 2.170382 l 2.198416,17.2095944 -3.204259,-0.58953 -0.851482,-6.807414 -1.204807,3.756047 -1.806815,-4.692927 h -0.01894 l -0.714909,5.436144 -3.007663,-0.630462 1.79101,-12.8849319 h 3.03846 l 0.757145,4.9983729 z"
       id="path10"
       style="stroke-width:0.433393" />
    <path
       fill="#130400"
       d="m 56.511234,7.1205028 6.41245,1.7005447 0.47884,2.8539095 0.51832,-2.5746092 5.45714,1.5958632 -5.24199,19.036221 -4.02181,-1.525441 -0.0317,-1.907533 -3.85956,-0.650909 1.30152,-13.972639 -0.96636,-0.25932 z"
       id="path12"
       style="stroke-width:0.433393" />
    <path
       fill="#ffffff"
       d="m 57.649314,8.9095439 4.18287,1.0130039 1.40612,8.0397592 1.44127,-7.207093 3.18253,0.848834 -4.48091,16.358369 -2.22524,-0.801735 -0.19423,-9.886869 -1.11953,7.627239 -2.42894,-0.465338 1.08953,-13.847996 -0.91584,-0.295 z"
       id="path14"
       style="stroke-width:0.433393" />
    <path
       d="m 55.892244,23.445549 c -1.38559,0.629023 -2.85883,0.555273 -4.042323,-0.202691 -1.095451,-0.702305 -1.862075,-1.913719 -2.158143,-3.412509 -0.591339,-2.989522 1.046902,-6.399657 3.653096,-7.601558 1.39941,-0.635209 2.8845,-0.559553 4.07943,0.205082 1.08559,0.694681 1.84195,1.878976 2.13011,3.334947 0.60359,3.03234 -1.03782,6.476266 -3.66217,7.676729 z"
       fill="#130400"
       id="path16"
       style="stroke-width:0.433393" />
    <path
       d="m 58.540674,16.043373 c -0.47568,-2.400477 -2.59593,-3.600454 -4.775,-2.610774 -2.111951,0.974466 -3.496359,3.728441 -3.021474,6.129384 0.488721,2.476114 2.592784,3.675156 4.771854,2.685945 2.12853,-0.973981 3.51413,-3.748421 3.02462,-6.204555 z"
       fill="#ffffff"
       id="path18"
       style="stroke-width:0.433393" />
    <path
       d="m 56.957694,16.468266 c -0.0446,1.32275 -0.99913,2.319569 -2.16642,2.262471 -1.14876,-0.05611 -2.03301,-1.143365 -1.98841,-2.465648 0.0415,-1.242327 0.99599,-2.239632 2.16289,-2.182535 1.14914,0.05611 2.03379,1.143366 1.99194,2.385712 z"
       fill="#130400"
       id="path20"
       style="stroke-width:0.433393" />
    <path
       d="m 55.472614,14.141557 c -0.69871,-0.03435 -1.28532,0.545275 -1.3098,1.294678 -0.0252,0.748918 0.52028,1.384127 1.21822,1.417918 0.69872,0.03435 1.28533,-0.545292 1.30982,-1.29421 0.0256,-0.749403 -0.52031,-1.384127 -1.21824,-1.418386 z"
       fill="#ffffff"
       id="path22"
       style="stroke-width:0.433393" />
    <path
       d="m 20.525844,25.114209 c -1.418757,0.724659 -2.953967,0.723238 -4.211679,-0.0054 -1.164534,-0.673693 -2.004186,-1.895106 -2.364594,-3.439574 -0.719651,-3.079456 0.865315,-6.709403 3.533476,-8.092108 1.433377,-0.732284 2.980027,-0.728939 4.250364,0.0054 1.153092,0.667075 1.981687,1.860883 2.332636,3.360158 0.734245,3.123696 -0.852294,6.789825 -3.540203,8.172045 z"
       fill="#130400"
       id="path24"
       style="stroke-width:0.433393" />
    <path
       d="m 23.050727,17.131547 c -0.58385,-2.49372 -2.850557,-3.643757 -5.101867,-2.49372 -2.181034,1.130039 -3.536634,4.091022 -2.953576,6.58521 0.600829,2.572235 2.850153,3.722739 5.101463,2.572235 2.198803,-1.130058 3.554404,-4.111955 2.95398,-6.663725 z"
       fill="#ffffff"
       id="path26"
       style="stroke-width:0.433393" />
    <path
       d="m 21.526964,17.60879 c 0,1.323703 -0.920192,2.366667 -2.087891,2.366667 -1.150318,0 -2.070104,-1.042964 -2.070104,-2.366667 0,-1.2433 0.919786,-2.286749 2.08787,-2.286749 1.149933,4.67e-4 2.070125,1.043449 2.070125,2.286749 z"
       fill="#130400"
       id="path28"
       style="stroke-width:0.433393" />
    <path
       d="m 19.965288,15.356767 c -0.699112,0 -1.265594,0.607622 -1.265594,1.357494 0,0.74987 0.566482,1.357493 1.265594,1.357493 0.698733,0 1.265195,-0.607623 1.265195,-1.357493 0,-0.749872 -0.566462,-1.357494 -1.265195,-1.357494 z"
       fill="#ffffff"
       id="path30"
       style="stroke-width:0.433393" />
    <path
       d="m 12.70687,20.518843 c 3.047141,-2.699756 4.499066,-6.776013 3.39848,-9.836425 A 5.5068779,6.6375546 0 0 0 13.744302,7.5449109 C 13.017937,6.9620511 12.151443,6.5975817 11.24389,6.4748276 9.019034,6.0042379 6.344953,6.487415 3.713886,7.8361158 A 18.564296,22.375933 0 0 0 1.029137,9.5233344 L 0,10.31223 l 0.621343,1.265185 1.926814,3.924478 c 0,0 0.592145,1.206181 0.594905,1.204275 l 1.044534,-0.615211 0.145321,-0.0856 4.788826,12.889699 0.46067,1.239019 1.072569,-0.413475 2.593155,-0.999678 1.135725,-0.437284 -0.300413,-1.391266 z"
       id="path32"
       style="stroke-width:0.433393" />
    <path
       d="M 14.949883,11.28621 C 14.568155,10.225155 13.909705,9.392973 13.046762,8.8086748 12.421062,8.3066866 11.702605,8.0640192 11.026386,7.9702893 9.108644,7.5649084 6.717595,7.9465526 4.206932,9.2335684 3.312806,9.691767 2.473945,10.215641 1.705355,10.805172 l 1.926814,3.924478 c 0.493449,-0.292625 1.027555,-0.599997 1.315735,-0.783176 l 5.323709,14.328548 2.593558,-0.999192 -1.600752,-7.411223 c 3.06333,-2.280095 4.611965,-6.002349 3.685464,-8.578397 z"
       fill="#ffffff"
       id="path34"
       style="stroke-width:0.433393" />
    <path
       d="m 42.190581,15.054628 -1.82339,-1.978406 0.894531,-1.148131 0.805695,-1.034423 -0.742539,-1.1014999 C 39.876116,7.6429383 37.559284,6.7807607 35.129145,7.4873458 c -3.381508,0.9820726 -5.289371,4.4907022 -4.536961,8.3423832 0.302388,1.549233 1.110064,2.877216 2.273406,3.740347 1.389949,1.031076 3.136375,1.313236 4.917521,0.795549 1.880619,-0.545742 3.259912,-1.463111 4.474177,-2.973337 l 0.973085,-1.209976 z"
       fill="#130400"
       id="path36"
       style="stroke-width:0.433393" />
    <path
       d="m 39.388593,14.116327 c -0.457133,0.6533 -0.981378,1.248533 -1.916164,1.520225 -0.311466,0.09045 -0.733852,0.174618 -1.000714,0.117612 L 40.39087,10.722953 C 39.282796,9.08044 37.470461,8.3220084 35.411012,8.9201002 c -2.559623,0.7436845 -4.286301,3.3097338 -3.647185,6.5828348 0.514362,2.633613 2.928704,4.24327 5.730719,3.429648 1.697059,-0.492943 2.877381,-1.282791 3.936921,-2.600308 z"
       fill="#ffffff"
       id="path38"
       style="stroke-width:0.433393" />
    <path
       fill="#130400"
       d="M 33.266272,6.6670516 38.068125,0 40.724054,4.7804691 34.655829,8.71018 Z"
       id="path40"
       style="stroke-width:0.433393" />
    <path
       fill="#ffffff"
       d="M 37.862842,2.1240175 39.267797,4.423607 35.251517,6.8226441 34.974,6.3159085 Z"
       id="path42"
       style="stroke-width:0.433393" />
    <path
       d="m 34.885177,14.19389 a 1.4448153,1.7414659 0 0 1 1.783919,-2.466116 z m 0.196596,-2.013618 a 1.4452101,1.7419417 0 0 0 -0.196982,2.01315 l 1.783514,-2.466134 a 1.4452101,1.7419417 0 0 0 -1.586532,0.452984 z m 2.57659,-0.822686 a 2.2396091,2.6994475 0 1 0 -3.015172,3.992527 c 0.07624,0.08327 0.156721,0.156635 0.238826,0.225061 l 2.934245,-4.024878 a 2.0784022,2.5051414 0 0 0 -0.157899,-0.19271 z m -2.773186,2.836304 a 1.4448153,1.7414659 0 0 1 1.783919,-2.466116 z M 12.932669,13.737597 C 12.7049,12.21881 11.06467,11.368538 9.424843,12.428155 l 0.411747,1.739569 0.648975,2.571281 0.296073,1.172876 c 1.228483,-0.94116 2.466842,-2.071217 2.151031,-4.174284 z m -1.631934,2.319568 -0.560157,-2.220606 -0.166582,-0.703725 c 0.347771,-0.07427 0.680561,-0.03669 0.954119,0.122826 0.152378,0.08848 0.416865,0.295485 0.474904,0.684214 0.131445,0.873129 -0.118465,1.494527 -0.702284,2.117364 z m 0.545564,20.700601 c -0.183963,0.164189 -0.356469,0.304531 -0.506877,0.414913 0.07072,-0.460105 0.187127,-0.909743 0.328046,-1.33131 -0.0045,0.02806 -0.0075,0.05574 -0.01045,0.08327 a 1.0350562,1.2475747 0 0 0 0.189096,0.833133 z m 3.443864,-2.996642 a 0.83372947,1.0049114 0 0 0 -0.688842,-0.250275 0.76188345,0.91831399 0 0 0 -0.111303,0.03237 c -0.134578,0.05286 -0.369881,0.188411 -1.055187,0.594764 l -0.280272,0.166526 c -0.193437,0.112756 -0.470159,0.270254 -0.611884,0.312119 l -0.02522,0.009 c -0.235273,0.08093 -0.42989,0.264552 -0.574762,0.488175 a 9.6013105,11.572659 0 0 1 0.886232,-1.714337 1.2987547,1.5654161 0 0 0 0.306725,-0.07175 c 0.420028,-0.172281 0.603186,-0.66328 0.634369,-1.064868 l 0.0015,-0.03184 a 1.5814016,1.9060962 0 0 0 -0.0089,-0.277862 c -0.003,-0.05467 -0.009,-0.117611 -0.01045,-0.182243 a 0.6035854,0.72751404 0 0 0 -0.006,-0.07895 l -0.0075,-0.06797 c -0.01775,-0.16239 -0.03939,-0.344094 -0.094,-0.523479 -0.08489,-0.294513 -0.252252,-0.526715 -0.4745,-0.653767 -0.234498,-0.133617 -0.510817,-0.14045 -0.777676,-0.01798 a 0.29370015,0.3540029 0 0 0 -0.01969,0.009 c -0.342264,0.170843 -0.775303,0.651376 -1.00901,1.016799 -0.763859,1.233785 -2.244982,4.101956 -2.430124,6.209321 a 1.0911119,1.3151398 0 0 0 -0.003,0.04478 c -0.04819,1.057261 0.271589,1.612534 0.547922,1.892302 0.262518,0.265021 0.735437,0.536246 1.498893,0.321183 l 0.03357,-0.01079 c 0.742539,-0.255041 1.526928,-0.783195 2.342887,-1.573511 0.163837,0.404429 0.534898,0.77129 1.126251,0.621398 l 0.02686,-0.0072 c 0.388845,-0.117431 0.8132,-0.545274 0.872029,-1.135273 0.0015,-0.01996 0.003,-0.03993 0.0045,-0.05953 0.006,-0.156096 -0.009,-0.303092 -0.02522,-0.457732 -0.01656,-0.157893 -0.03387,-0.321164 -0.02521,-0.481522 0.02163,-0.330211 0.07699,-0.802221 0.153959,-1.312283 l 0.0379,-0.251229 c 0.04148,-0.270255 0.05371,-0.352096 0.06833,-0.574785 l 0.0015,-0.03002 a 0.93162954,1.1229125 0 0 0 -0.305218,-0.888901 z m -1.656001,-2.698803 c 0.0045,0.01259 0.0075,0.02518 0.01045,0.03759 l 0.0045,0.01438 a 0.46581475,0.56145623 0 0 0 -0.01582,-0.05143 z"
       id="path44"
       style="stroke-width:0.433393" />
    <path
       d="M 18.374412,32.414582 C 17.989128,31.999183 17.471215,31.794119 17.02197,31.877868 a 1.3153346,1.5854001 0 0 0 -0.498179,0.01079 l -0.03044,0.009 c -0.459893,0.136493 -0.633978,0.518622 -0.701491,0.670402 -0.683724,0.897856 -1.221381,2.293888 -1.31099,3.414415 l -0.003,0.03669 c -0.04028,0.899295 0.139353,1.568276 0.532927,1.98889 0.373836,0.399681 0.898066,0.531013 1.557316,0.391589 l 0.03863,-0.01079 c 1.073347,-0.300233 2.308545,-1.527347 2.483417,-3.511957 0.0014,-0.01619 0.0027,-0.03417 0.0027,-0.05143 0.04966,-1.297052 -0.363959,-2.026476 -0.719638,-2.409972 z"
       id="path46"
       style="stroke-width:0.433393" />
    <path
       d="m 20.983768,31.522426 a 0.93834043,1.1310012 0 0 0 -0.236857,-0.183178 l 0.0027,-0.198898 c 0.0014,-0.206017 0.0047,-0.418706 0.0089,-0.502455 0.01658,-0.43964 -0.115635,-0.828854 -0.361991,-1.084362 -0.249495,-0.258853 -0.585046,-0.354956 -0.945062,-0.270272 a 0.7291185,0.87882173 0 0 0 -0.04222,0.01079 c -0.551862,0.171381 -0.947423,0.755122 -1.007818,1.487872 -0.02327,0.338771 -0.01042,0.639005 4.06e-4,0.929723 0.0047,0.106642 0.0074,0.211269 0.01042,0.316886 -0.353304,0.213642 -0.58504,0.644255 -0.627277,1.193809 a 0.96597353,1.164308 0 0 0 0.310675,0.947346 c 0.0852,0.09226 0.18356,0.162211 0.288573,0.210299 a 20.407424,24.597492 0 0 1 -0.0276,0.759401 c -0.0249,0.422987 -0.05209,1.408406 -0.04851,1.638215 a 0.90162786,1.0867509 0 0 0 0.364365,0.828854 c 0.170144,0.152679 0.476469,0.316903 0.969533,0.227921 a 0.80925447,0.97541122 0 0 0 0.03281,-0.0072 c 0.510816,-0.121388 0.939129,-0.644254 0.996371,-1.215227 0.0014,-0.01798 0.0027,-0.03381 0.0047,-0.05035 0.01042,-0.21269 0.03241,-1.372707 0.03599,-1.677706 l -4.06e-4,-0.04999 c -0.0061,-0.171383 0.0027,-0.675168 0.01346,-1.081989 l 0.0134,-0.0072 c 0.340687,-0.220297 0.570826,-0.678981 0.592144,-1.171923 a 0.59213741,0.71371556 0 0 0 6.77e-4,-0.03237 c 0.0061,-0.414427 -0.116826,-0.776522 -0.345416,-1.018705 z"
       id="path48"
       style="stroke-width:0.433393" />
    <path
       d="m 23.317974,31.064227 a 0.95018317,1.1452755 0 0 0 -0.237243,-0.188429 l 0.0027,-0.247884 c 0.0027,-0.230294 0.0061,-0.448217 0.01042,-0.539106 0.01698,-0.450591 -0.115337,-0.850272 -0.361605,-1.113387 -0.243968,-0.259787 -0.572003,-0.364002 -0.92413,-0.292158 -0.01488,0.0036 -0.02997,0.0072 -0.04506,0.01079 -0.560556,0.157894 -0.963221,0.752263 -1.025199,1.514507 -0.02375,0.350675 -0.01346,0.664719 -0.0014,0.968746 0.0047,0.114734 0.0074,0.231734 0.01042,0.350677 -0.354887,0.212221 -0.586995,0.645207 -0.629638,1.20476 l -0.0027,0.04711 a 0.98057954,1.181913 0 0 0 0.309099,0.90309 c 0.08564,0.09514 0.18475,0.167425 0.29094,0.217437 a 23.198364,27.961471 0 0 1 -0.02923,0.803173 c -0.02523,0.429174 -0.0525,1.414106 -0.04817,1.637729 6.76e-4,0.03382 0.0027,0.06797 0.0074,0.101427 0.06623,0.570019 0.497001,1.089613 1.309407,0.965905 l 0.03315,-0.0054 c 0.518725,-0.10844 0.953749,-0.62521 1.011769,-1.201901 l 0.0047,-0.05054 c 0.01042,-0.207455 0.03193,-1.36938 0.03599,-1.677706 l -3.92e-4,-0.04999 c -0.0061,-0.174079 0.0027,-0.691353 0.01488,-1.108172 l 0.0074,-0.0036 c 0.34501,-0.21839 0.576732,-0.68087 0.599234,-1.181437 l 6.77e-4,-0.03093 c 0.0061,-0.419175 -0.116081,-0.786036 -0.342642,-1.032984 z"
       id="path50"
       style="stroke-width:0.433393" />
    <path
       d="m 26.521044,32.541616 c -0.301596,-2.197768 -1.135326,-2.54749 -1.781154,-2.450901 a 0.53292367,0.64234399 0 0 0 -0.04384,0.0072 c -0.549115,0.123725 -1.509562,0.931647 -1.781538,1.235206 -0.01042,0.01079 -0.02091,0.02427 -0.03119,0.03669 a 1.2691478,1.5297304 0 0 0 -0.361213,0.980167 c -0.01191,0.38684 0.105331,0.742264 0.330802,0.99921 0.07311,0.0838 0.156336,0.15178 0.245152,0.20697 -0.426336,0.510064 -0.905971,1.230442 -0.968741,2.111646 a 0.77925286,0.93924969 0 0 0 -0.0027,0.0633 c -0.0047,0.376374 0.110561,0.711333 0.322914,0.943067 0.339895,0.370656 0.800965,0.35589 1.118358,0.312605 l 0.01847,-0.0036 a 3.4782151,4.192365 0 0 0 1.013331,-0.382561 c 0.195007,0.126064 0.432264,0.174079 0.708983,0.14171 l 0.02016,-0.0036 c 0.167383,-0.02518 0.731498,-0.149441 0.958085,-0.688979 0.0061,-0.01438 0.01191,-0.02859 0.01658,-0.0428 0.213564,-0.584279 0.268039,-1.337963 0.273559,-1.422198 0.0134,-0.204596 0.06745,-1.23758 -0.05608,-2.045502 z m -2.303025,2.142091 6.77e-4,-4.68e-4 v 0.01259 a 0.08329399,0.10039599 0 0 1 -6.77e-4,-0.01259 z m 0.0074,0.126603 0.0027,0.02086 z m 7.433691,-1.55256 c -0.209606,-0.251713 -0.506872,-0.383981 -0.837275,-0.37114 a 0.68845845,0.82981326 0 0 0 -0.05683,0.0054 c -0.274751,0.03615 -0.49345,0.198411 -0.665955,0.367815 0.13861,-0.367815 0.313828,-0.667094 0.454359,-0.728472 0.338704,-0.136133 0.757146,-0.504829 0.825436,-1.487855 l 0.0014,-0.02518 c 0.02178,-0.468683 -0.08057,-0.842198 -0.302773,-1.109593 -0.144131,-0.17318 -0.402664,-0.373515 -0.816749,-0.345443 -0.03951,0.0018 -0.07893,0.009 -0.117272,0.01943 -0.670704,0.180805 -2.405669,2.325287 -2.620803,4.676741 l -0.0027,0.04477 c -0.02882,0.591439 0.09788,1.064869 0.375806,1.406967 0.310675,0.381122 0.757937,0.552414 1.368239,0.523388 0.01624,-9.46e-4 0.03234,-0.0018 0.04851,-0.0036 0.633189,-0.08129 2.429335,-0.70894 2.615655,-2.010289 a 0.73030279,0.88024918 0 0 0 0.01042,-0.122289 0.9375509,1.1300496 0 0 0 -0.279094,-0.839805 z"
       id="path52"
       style="stroke-width:0.433393" />
    <path
       d="m 35.034794,31.857402 c -0.22857,-1.811879 -0.800573,-2.723547 -1.699041,-2.695475 a 0.51713334,0.62331158 0 0 0 -0.04939,0.0036 c -0.567659,0.0642 -1.554944,0.839806 -1.833247,1.141945 a 1.2691478,1.5297304 0 0 0 -0.399904,1.035375 c -0.01191,0.388729 0.09952,0.751777 0.31581,1.022031 0.08878,0.110419 0.191455,0.198898 0.301596,0.265508 -0.439367,0.491036 -0.950569,1.205227 -1.016113,2.119736 a 0.77767381,0.93734643 0 0 0 -0.0027,0.06366 c -0.0047,0.464384 0.161464,0.75987 0.301995,0.925443 0.318963,0.377795 0.767409,0.405867 1.0769,0.393979 l 0.01942,-9.45e-4 a 3.2780727,3.9511292 0 0 0 1.011775,-0.281207 c 0.187511,0.144228 0.421608,0.214111 0.698713,0.209363 l 0.02205,-9.45e-4 c 0.174893,-0.009 0.76544,-0.0838 1.009401,-0.645208 0.0061,-0.01438 0.01191,-0.02859 0.01732,-0.0428 0.210012,-0.555272 0.266869,-1.279446 0.277132,-1.419338 0.01191,-0.206971 0.06711,-1.248533 -0.05176,-2.094993 z m -1.589293,1.241394 c -0.01495,0.0015 -0.02835,0.0018 -0.04222,0.0054 l 0.0047,-0.0054 c 0.01191,-9.46e-4 0.02524,0 0.03789,0 z m -0.714131,0.8222 z m 0.0047,0.153757 z"
       id="path54"
       style="stroke-width:0.433393" />
    <path
       d="m 36.906738,29.544956 c 0.0047,-0.161852 0.0074,-0.320213 0.01042,-0.466759 0.0061,-0.271208 0.01042,-0.527688 0.01624,-0.640443 0.01942,-0.464871 -0.101008,-0.89453 -0.330809,-1.191435 a 1.121903,1.3522531 0 0 0 -0.86136,-0.426314 c -0.618196,0.041 -1.081648,0.667076 -1.152306,1.558746 -0.02638,0.393979 -0.01847,0.75987 -0.01197,1.113405 0.0027,0.14081 0.0061,0.284047 0.0061,0.429641 -0.303971,0.170303 -0.581481,0.550992 -0.632405,1.230927 l -0.0027,0.0428 c -0.01191,0.338771 0.09087,0.67328 0.280677,0.917368 0.08997,0.115094 0.195798,0.204598 0.311473,0.265975 -0.01197,0.375888 -0.02523,0.795549 -0.03714,1.000145 -0.02638,0.448704 -0.05372,1.427432 -0.04939,1.655353 6.76e-4,0.03381 0.0027,0.06761 0.0074,0.100348 0.05521,0.479616 0.405411,1.041543 1.209142,1.048682 l 0.03477,-9.46e-4 c 0.55425,-0.02715 1.038614,-0.528621 1.100991,-1.141459 0.0027,-0.01798 0.0027,-0.03524 0.0047,-0.05286 a 77.928838,93.92925 0 0 0 0.03714,-1.750988 c -0.0061,-0.182711 0.0061,-0.730845 0.01854,-1.177156 0.346992,-0.206504 0.580683,-0.659002 0.605154,-1.181904 l 0.0014,-0.03327 c 0.0089,-0.593812 -0.21395,-1.076774 -0.566469,-1.299929 z"
       id="path56"
       style="stroke-width:0.433393" />
    <path
       d="m 39.178175,32.726233 a 0.59726926,0.71990108 0 0 0 -0.0592,-9.45e-4 c -0.331601,0.01259 -0.590547,0.216484 -0.778065,0.401102 0.140099,-0.426801 0.339104,-0.776524 0.480427,-0.823622 a 0.19027349,0.2293406 0 0 1 -0.01779,0.0054 c 0.295283,-0.08938 0.801756,-0.401587 0.877549,-1.483575 l 6.77e-4,-0.02482 c 0.02179,-0.455826 -0.07266,-0.826014 -0.279094,-1.100081 -0.131892,-0.175157 -0.371476,-0.388261 -0.766232,-0.407773 a 0.72438142,0.87311203 0 0 0 -0.123983,0.0072 c -0.774126,0.122287 -2.466456,2.261537 -2.676063,4.556845 a 0.56371482,0.6794572 0 0 0 -0.0027,0.04478 c -0.01042,0.216484 -0.04222,0.87597 0.356856,1.406967 0.291339,0.387307 0.737018,0.598576 1.324027,0.626162 0.01624,9.46e-4 0.03315,9.46e-4 0.04939,4.86e-4 0.643838,-0.0223 2.469602,-0.499615 2.660664,-1.837578 0.0061,-0.04046 0.0089,-0.08093 0.01042,-0.121747 0.01658,-0.676608 -0.437797,-1.213322 -1.055981,-1.249485 z"
       id="path58"
       style="stroke-width:0.433393" />
    <path
       d="m 42.165712,29.390802 a 0.8210972,0.98968555 0 0 0 -0.06953,-0.0054 1.9382632,2.3362289 0 0 0 -0.762666,0.166525 c 0.0047,-0.148362 0.0089,-0.292625 0.01624,-0.426332 0.04458,-0.699445 0.08967,-1.17525 0.125478,-1.557791 0.02091,-0.221268 0.03951,-0.41254 0.05088,-0.584784 l 6.77e-4,-0.02338 c 0.04222,-0.939254 -0.380163,-1.65154 -1.027959,-1.732897 a 0.96636822,1.1647838 0 0 0 -0.04939,-0.0036 c -1.317702,-0.05719 -1.442449,1.72529 -1.489415,2.39571 -0.06089,1.108155 -0.03241,2.536538 -0.0089,3.684202 0.01042,0.543836 0.02016,1.013472 0.01772,1.341309 v 0.03237 c 6.77e-4,0.0205 0.0734,2.143996 0.185143,2.642639 0.01191,0.05611 0.02923,0.109879 0.05088,0.161851 0.249089,0.602858 0.673058,0.67328 1.085579,0.694681 0.01773,4.85e-4 0.03552,9.44e-4 0.05324,0 0.349367,-0.01259 0.645442,-0.202206 0.829001,-0.498644 0.166579,0.231249 0.418834,0.406821 0.770169,0.461544 0.02327,0.0036 0.04702,0.0054 0.07027,0.0072 0.724766,0.02715 1.233614,-0.471543 1.296769,-1.269951 0.01495,-0.159334 0.05324,-0.461058 0.09072,-0.752731 0.04702,-0.366843 0.09161,-0.714192 0.106975,-0.923536 0.160672,-2.965731 -0.641877,-3.70562 -1.342172,-3.807928 z m 4.172987,-2.844396 a 0.71885482,0.8664507 0 0 0 -0.111751,-0.01619 c -0.651348,-0.03418 -0.913461,0.709426 -1.124265,1.30705 a 8.7162625,10.505893 0 0 1 -0.174879,0.474384 c -0.01536,0.03327 -0.041,0.0856 -0.06711,0.137933 -0.185143,0.375888 -0.34068,0.717518 -0.376997,1.091033 -0.0027,0.02229 -0.0047,0.04478 -0.0047,0.06761 -0.02327,0.708473 0.391609,1.291818 0.986899,1.386986 0.02686,0.0036 0.05399,0.0072 0.08176,0.0072 0.607528,0.01259 1.190586,-0.832667 1.34613,-1.130058 0.01042,-0.0205 0.02016,-0.041 0.02923,-0.06186 0.19659,-0.452012 0.429503,-1.150972 0.464237,-1.493556 0.0027,-0.02806 0.0047,-0.05611 0.0061,-0.08524 0.01197,-0.581439 -0.357255,-1.516412 -1.054006,-1.685331 z"
       id="path60"
       style="stroke-width:0.433393" />
    <path
       d="m 48.41197,32.963183 c 0.08176,-0.264068 0.09712,-0.512922 0.107719,-0.689448 l 0.0027,-0.03435 c 0.0014,-0.01943 0.0014,-0.03957 0.0027,-0.05898 0.0047,-0.887858 -0.783192,-2.26819 -2.078785,-2.498 a 0.70859113,0.85407959 0 0 0 -0.129503,-0.009 c -0.887414,0.03525 -1.382447,1.804741 -1.515874,3.051835 -0.201333,0.192242 -0.352513,0.477242 -0.386475,0.947346 a 1.0532151,1.2694621 0 0 0 0.324497,0.991586 c 0.106974,0.903557 0.525808,1.754316 1.334682,1.897535 0.03477,0.0054 0.06864,0.009 0.103396,0.009 0.301596,0.0015 0.643845,-0.17318 1.409285,-0.718005 l 0.0525,-0.03759 c 0.477267,-0.332117 1.202824,-0.8379 1.299935,-1.633449 0.0047,-0.02661 0.0061,-0.05323 0.0074,-0.08039 0.02253,-0.511015 -0.182768,-0.928788 -0.533318,-1.138618 z m -3.144244,0.229342 c -0.01191,0.0036 -0.02523,0.0054 -0.03863,0.01079 a 0.53292367,0.64234399 0 0 1 0.03863,-0.01079 z"
       id="path62"
       style="stroke-width:0.433393" />
    <path
       d="m 53.929904,33.316233 c -0.007,-0.970654 -0.3162,-2.180162 -1.16098,-2.431857 a 1.2119079,1.4607378 0 0 0 -0.0616,-0.01438 c -0.40109,-0.07517 -0.830975,0.0018 -1.212707,0.196972 a 1.5020552,1.8104585 0 0 0 -0.813988,-0.484365 c -0.352513,-0.04909 -0.680169,0.06708 -0.969127,0.274534 -0.157912,-0.16221 -0.370691,-0.281674 -0.656882,-0.332585 -0.01779,-0.0036 -0.03552,-0.0054 -0.05324,-0.0072 -0.529766,-0.04766 -1.183489,0.515781 -1.26441,1.340356 a 0.39436352,0.47533455 0 0 0 -0.0047,0.05233 c -0.01346,0.276927 0.0061,0.583346 0.02686,0.937816 0.02402,0.386373 0.05088,0.824592 0.04939,1.374146 0.0027,0.243136 0.02327,1.396986 0.111752,1.844718 0.0089,0.04945 0.02327,0.09801 0.04032,0.145126 0.153554,0.427752 0.522662,0.718957 1.013737,0.799361 0.01042,0.0018 0.02091,0.0036 0.03166,0.0036 0.303178,0.03327 0.631613,-0.05431 0.878341,-0.265507 0.157898,0.202223 0.406196,0.369703 0.796622,0.441564 0.01191,0.0018 0.02449,0.0036 0.03789,0.0054 0.377775,0.04513 0.690824,-0.05286 0.930442,-0.291204 0.0074,-0.0072 0.01624,-0.01798 0.02402,-0.02518 0.173297,0.271208 0.4457,0.455825 0.80493,0.533387 l 0.03,0.0054 c 0.38923,0.06366 0.71608,-0.02661 0.97071,-0.268834 0.16342,-0.156095 0.36712,-0.446779 0.40699,-0.944487 a 0.23843399,0.28738946 0 0 0 10e-4,-0.02859 c 0.009,-0.163648 0.007,-0.352563 0.006,-0.572392 -0.003,-0.207924 -0.005,-0.443452 0.005,-0.653282 0.0177,-0.472011 0.0307,-1.217134 0.0323,-1.636326 z m 4.54525,1.208555 c -0.22264,-1.551607 -0.70465,-2.386665 -1.51429,-2.614568 a 0.41962804,0.50578641 0 0 0 -0.0386,-0.009 c -0.51437,-0.110418 -1.48035,0.188412 -1.85498,0.43678 a 1.0480832,1.2632765 0 0 0 -0.53055,1.053449 c -0.0162,0.552413 0.24515,1.013957 0.57279,1.262326 -0.3687,0.32879 -0.88741,0.934974 -0.9561,1.891816 a 0.54950352,0.66232802 0 0 0 -0.003,0.06132 c -0.006,0.45489 0.14099,1.257092 1.19651,1.517366 l 0.0194,0.0054 a 2.7001466,3.2545429 0 0 0 1.01612,-0.01798 c 0.16422,0.203177 0.38923,0.353536 0.66161,0.427286 0.007,0.0018 0.0149,0.0036 0.0225,0.0054 0.3924,0.09136 0.9344,0.0072 1.17125,-0.531966 0.007,-0.01619 0.0134,-0.03237 0.0202,-0.04945 0.21278,-0.56716 0.27081,-1.337982 0.27595,-1.424104 0.0177,-0.282627 0.0624,-1.24186 -0.0592,-2.014103 z m -1.71721,0.933068 c 0.0671,-0.01817 0.13578,-0.02572 0.2045,-0.0205 a 1.0461094,1.2608974 0 0 0 -0.2045,0.0205 z m -0.56133,0.829807 z"
       id="path64"
       style="stroke-width:0.433393" />
    <path
       d="m 60.127214,37.068483 c -0.043,-0.425865 -0.0971,-0.955438 -0.0979,-1.36796 0.003,-0.288345 -0.0225,-0.798408 -0.0509,-1.387939 -0.0292,-0.59953 -0.0647,-1.342748 -0.0549,-1.612517 0.0233,-0.344489 0.0564,-0.648067 0.0825,-0.892622 0.0245,-0.228389 0.0446,-0.409194 0.0509,-0.566225 6.8e-4,-0.01852 6.8e-4,-0.03669 6.8e-4,-0.05521 -0.009,-0.688961 -0.47805,-1.186669 -0.93991,-1.374614 a 0.31580663,0.3806483 0 0 0 -0.0292,-0.01079 c -0.46345,-0.162751 -0.78794,-0.01079 -0.97861,0.147463 -0.43502,0.358282 -0.53055,1.01063 -0.56451,1.470268 l -10e-4,0.02284 c -0.0446,0.861206 0.0134,1.846138 0.0655,2.714969 0.0292,0.493411 0.0573,0.959702 0.0573,1.292305 -0.003,0.628537 0.0245,1.263261 0.0438,1.72671 0.009,0.232202 0.0177,0.432518 0.0177,0.527669 0,0.01619 6.7e-4,0.03147 10e-4,0.04765 0.0134,0.299279 0.14562,1.025844 1.08953,1.310863 l 0.0225,0.0054 c 0.4524,0.118869 0.75558,-0.03759 0.92966,-0.189851 0.2337,-0.203644 0.38015,-0.523874 0.41253,-0.901669 10e-4,-0.01907 0.003,-0.03848 0.005,-0.05755 0.006,-0.190786 -0.0166,-0.42252 -0.0609,-0.850272 z"
       id="path66"
       style="stroke-width:0.433393" />
    <path
       d="m 61.753624,37.530495 c -0.0422,-0.427286 -0.0955,-0.960672 -0.0964,-1.367493 10e-4,-0.293561 -0.0252,-0.831228 -0.0541,-1.400312 -0.0292,-0.570019 -0.0647,-1.277539 -0.0564,-1.528767 0.0225,-0.324978 0.0532,-0.608558 0.0785,-0.837433 0.0245,-0.21839 0.0438,-0.390635 0.0494,-0.544321 6.7e-4,-0.01852 6.7e-4,-0.03705 6.7e-4,-0.05574 -0.0104,-0.663281 -0.4749,-1.15527 -0.93045,-1.3494 a 0.75201452,0.90641877 0 0 0 -0.0276,-0.01079 c -0.4733,-0.175517 -0.80252,-0.02625 -0.99518,0.12984 -0.42949,0.347349 -0.52187,0.970186 -0.55424,1.408873 l -0.001,0.0223 c -0.0422,0.80936 0.017,1.758127 0.0695,2.595074 0.0307,0.494849 0.06,0.963046 0.0609,1.299443 -0.003,0.623773 0.0233,1.264214 0.0415,1.732411 0.0104,0.23792 0.0185,0.443938 0.0185,0.543387 0,0.01438 0,0.02859 6.7e-4,0.04244 0.0119,0.298811 0.14099,1.026797 1.07335,1.333702 l 0.0225,0.0072 c 0.4524,0.130918 0.75872,-0.0214 0.93518,-0.172641 0.23883,-0.203177 0.38845,-0.527687 0.4224,-0.914042 10e-4,-0.01852 0.003,-0.03759 0.003,-0.05611 0.006,-0.193663 -0.0182,-0.446311 -0.0604,-0.876924 z"
       id="path68"
       style="stroke-width:0.433393" />
    <path
       d="m 14.773036,35.348894 c -0.07341,0.486289 -0.137413,1.006351 -0.164612,1.414591 -0.02088,0.406335 0.05878,0.754151 0.05058,0.948768 -0.0194,0.195551 -0.204493,0.354003 -0.328046,0.391102 -0.123537,0.03147 -0.273573,0.04424 -0.341861,-0.196505 -0.03402,-0.117071 -0.04387,-0.365422 -0.02521,-0.677558 0.02327,-0.363984 0.0561,-0.631865 0.08654,-0.844554 -1.168878,1.447896 -2.281701,2.357171 -3.237804,2.685943 -0.860974,0.243136 -1.202448,-0.329725 -1.157836,-1.314656 0.151199,-1.719104 1.372177,-4.296088 2.283281,-5.767308 0.206463,-0.322586 0.54358,-0.658983 0.712937,-0.743217 0.125478,-0.05719 0.258176,-0.04711 0.31147,0.145126 0.03551,0.105563 0.04939,0.275973 0.06625,0.422519 0.0075,0.17372 0.02208,0.309764 0.01895,0.367815 -0.0075,0.09514 -0.04939,0.279767 -0.146515,0.319743 -0.04341,0.01438 -0.0928,0.03093 -0.153959,0.02949 -0.05178,-0.0054 -0.117271,-0.01438 -0.151588,-0.0036 -0.04342,0.01619 -0.1583,0.0642 -0.304367,0.280721 -0.617002,0.963046 -1.573493,2.798718 -1.729825,4.738118 -0.03118,0.657095 0.180801,0.832199 0.544371,0.733704 0.556218,-0.198411 1.806021,-1.268512 2.64093,-2.448528 0.0561,-0.06761 0.09042,-0.124265 0.138905,-0.200316 -0.114885,0.03327 -0.211208,0.132717 -0.51753,0.32165 -0.307129,0.200802 -0.438186,0.356395 -0.659255,0.422052 -0.221055,0.04999 -0.337506,-0.171741 -0.331985,-0.351629 0.01656,-0.182226 0.16224,-0.495317 0.338311,-0.556226 0.176847,-0.05233 0.414104,-0.175159 0.757145,-0.375889 0.477649,-0.282159 1.10966,-0.663281 1.242299,-0.715612 0.06192,-0.01079 0.159882,0.0714 0.153959,0.237901 -0.01343,0.221735 -0.02089,0.239341 -0.09549,0.736564 z m 1.5743,-2.221073 c 0.108619,-0.128941 0.08997,-0.314997 0.318956,-0.383513 0.221073,-0.05323 0.260935,0.04478 0.464236,-0.0036 0.423969,-0.08093 1.302709,0.392074 1.238749,2.042175 -0.144428,1.64298 -1.186242,2.545602 -1.926021,2.752573 -0.750044,0.158973 -1.302308,-0.08992 -1.240719,-1.472641 0.07535,-0.940675 0.554234,-2.176349 1.144799,-2.935752 z m 1.06782,2.07834 c 0.04269,-0.864552 -0.18475,-1.629655 -0.431079,-1.603489 -0.253433,0.09855 -0.721221,1.148131 -0.801757,2.166835 -0.04418,0.846479 0.142487,1.089614 0.416074,1.040124 0.316195,-0.09603 0.745313,-0.727033 0.816762,-1.60347 z m 1.335867,-1.627749 c -0.158304,0.02715 -0.248704,-0.131279 -0.24436,-0.274067 0.01732,-0.226968 0.10071,-0.476775 0.303172,-0.53148 0.114437,-0.02859 0.223042,-0.108081 0.320539,-0.131279 0.0391,-0.707052 -0.04506,-1.22046 -0.0074,-1.772406 0.0249,-0.303092 0.176056,-0.637584 0.467396,-0.727986 0.326851,-0.07661 0.454359,0.175159 0.444495,0.442032 -0.01488,0.267412 -0.0074,1.15241 -0.03951,1.711011 0.115634,-0.05286 0.174088,-0.144586 0.314619,-0.178036 0.185142,-0.03147 0.298443,0.139371 0.294878,0.411586 -0.01042,0.224091 -0.115628,0.385869 -0.204864,0.443453 -0.136222,0.0865 -0.292923,0.140809 -0.382537,0.182225 -0.01191,0.215549 -0.04296,1.394611 -0.03166,1.719103 a 71.865747,86.621279 0 0 1 -0.03477,1.63584 c -0.01698,0.168865 -0.188295,0.408242 -0.416865,0.462498 -0.281455,0.05088 -0.479235,-0.0205 -0.501731,-0.209362 -0.0027,-0.194131 0.02253,-1.150506 0.04702,-1.559717 0.02375,-0.409663 0.04458,-1.49165 0.05805,-1.739551 -0.12309,0.03759 -0.254217,0.08614 -0.386468,0.116172 z m 2.332217,-0.475336 c -0.158284,0.02284 -0.247506,-0.144227 -0.24317,-0.290252 0.01732,-0.233622 0.101015,-0.488645 0.303579,-0.539574 0.114437,-0.02572 0.223028,-0.103764 0.320139,-0.125164 0.04073,-0.73178 -0.04147,-1.274213 -0.0027,-1.854231 0.02612,-0.319258 0.177653,-0.666608 0.46858,-0.74845 0.326466,-0.06618 0.452404,0.206503 0.442134,0.486288 -0.01536,0.281207 -0.01042,1.209024 -0.04418,1.787135 0.115628,-0.05054 0.173682,-0.143688 0.314619,-0.17318 0.184351,-0.02608 0.29686,0.155017 0.292909,0.436798 -0.01042,0.230764 -0.115635,0.393495 -0.20527,0.449639 -0.135775,0.0838 -0.292523,0.135055 -0.382131,0.174619 -0.01197,0.222202 -0.04458,1.423618 -0.03356,1.751941 -0.0047,0.340192 -0.02524,1.460736 -0.03477,1.636776 -0.01657,0.167424 -0.18751,0.398727 -0.415681,0.446312 -0.280663,0.0428 -0.478843,-0.03291 -0.500553,-0.220297 -0.0047,-0.191757 0.02205,-1.144805 0.04627,-1.556373 0.02402,-0.412538 0.0458,-1.515926 0.06001,-1.769546 -0.123984,0.03525 -0.254225,0.08093 -0.386462,0.10754 z m 3.794814,2.199188 c -0.395933,0.490568 -0.97071,0.744655 -1.391918,0.816014 -0.420803,0.05701 -0.638325,-0.02715 -0.634367,-0.375889 0.04418,-0.618071 0.418441,-1.192856 0.918995,-1.752876 0.405404,-0.484851 0.857016,-0.960187 0.97899,-1.096268 0.07505,-0.08129 0.150409,-0.136493 0.212387,-0.158973 -0.02253,-0.383028 -0.11056,-0.790801 -0.382517,-0.765103 -0.245537,0.04945 -0.589776,0.375403 -0.745299,0.593326 -0.02402,0.03614 -0.148007,0.240762 -0.23568,0.262179 -0.148901,0.01619 -0.361599,-0.1284 -0.352127,-0.442031 0.0134,-0.176597 0.07654,-0.302624 0.160679,-0.407773 0.276719,-0.309278 1.105314,-0.945908 1.421517,-1.017284 0.272375,-0.04046 0.744507,0.03614 0.979389,1.742428 0.10504,0.688494 0.05845,1.621076 0.04655,1.816645 -0.0134,0.206019 -0.07416,0.755573 -0.214355,1.139553 -0.05061,0.120309 -0.304742,0.202691 -0.401467,0.216969 -0.148454,0.01798 -0.41173,0.01439 -0.403842,-0.282626 z m -0.894917,-0.664702 c -0.163033,0.271207 -0.192246,0.396821 -0.204092,0.564785 -0.0061,0.147465 0.06711,0.211737 0.198572,0.196505 0.394363,-0.0714 0.645827,-0.469619 0.734244,-0.547648 0.12786,-0.09747 0.245937,-0.18129 0.228962,-0.157894 0.02057,-0.326884 0.04655,-0.750356 0.04851,-1.179531 -0.257776,0.238856 -0.738588,0.699914 -1.006234,1.123855 z m 5.169358,-0.523875 c -0.02091,0.384935 0.03166,0.571459 0.328049,0.556712 0.305547,-0.03327 0.577537,-0.25932 0.731092,-0.363534 0.142189,-0.10844 0.388443,-0.514343 0.633189,-0.546694 0.243962,-0.009 0.37266,0.146564 0.368702,0.311184 -0.08847,0.617118 -1.330724,1.206163 -1.978135,1.289912 -0.88899,0.04244 -1.017675,-0.465338 -0.991628,-1.005865 0.185934,-2.031709 1.735358,-3.832654 2.058272,-3.91973 0.226594,-0.01438 0.374628,0.102326 0.354487,0.534341 -0.02253,0.320697 -0.0943,0.636629 -0.332777,0.732264 -0.695168,0.301204 -1.111241,1.670585 -1.171251,2.41141 z m 4.238518,0.467245 c -0.394364,0.45489 -0.964783,0.649488 -1.383232,0.678981 -0.418448,0.01619 -0.634366,-0.08758 -0.630814,-0.434874 0.04384,-0.614277 0.416865,-1.165737 0.915442,-1.694845 0.403842,-0.46059 0.854264,-0.910229 0.975845,-1.04059 0.07505,-0.07751 0.149604,-0.127502 0.211582,-0.143687 -0.02131,-0.404915 -0.107726,-0.849805 -0.376597,-0.85457 -0.244746,0.02338 -0.586996,0.331164 -0.742539,0.545759 -0.02449,0.03561 -0.148008,0.238855 -0.235275,0.251713 -0.147709,4.68e-4 -0.358439,-0.176956 -0.347384,-0.512454 0.01495,-0.18843 0.07744,-0.316417 0.161065,-0.420613 0.27632,-0.300719 1.101363,-0.885484 1.415597,-0.921649 0.270407,-0.009 0.737011,0.159333 0.965189,1.967473 0.102198,0.730844 0.05487,1.681032 0.04296,1.878975 -0.01488,0.20841 -0.07416,0.75845 -0.21397,1.127667 -0.05013,0.115632 -0.303172,0.17228 -0.399092,0.177495 -0.14771,0.0036 -0.40897,-0.02482 -0.401873,-0.320697 z m -0.888591,-0.761758 c -0.162255,0.261209 -0.191854,0.385402 -0.203294,0.553367 -0.0061,0.148362 0.06671,0.220764 0.197374,0.217922 0.39278,-0.03382 0.642262,-0.411586 0.7303,-0.482009 0.127123,-0.08614 0.245139,-0.16077 0.227772,-0.137932 0.0209,-0.330679 0.04776,-0.763197 0.05013,-1.207602 -0.256985,0.221249 -0.735828,0.649002 -1.002298,1.056307 z m 2.4096,-2.219186 c -0.156322,-0.0036 -0.243961,-0.206035 -0.238441,-0.368282 0.01942,-0.257881 0.103396,-0.530528 0.30437,-0.546227 0.11326,-0.0054 0.220674,-0.0714 0.316993,-0.07607 0.0454,-0.816481 -0.02923,-1.468828 0.0161,-2.14637 0.02923,-0.373048 0.181983,-0.750842 0.469371,-0.769869 0.320539,0.0072 0.442527,0.365422 0.429483,0.68898 -0.01772,0.323538 -0.02327,1.392686 -0.05994,2.032661 0.114884,-0.03327 0.172911,-0.125164 0.312258,-0.12948 0.181192,0.009 0.291333,0.235043 0.286198,0.543368 -0.01191,0.252648 -0.116528,0.409194 -0.20527,0.453919 -0.135024,0.06618 -0.289742,0.09279 -0.378579,0.118869 -0.0134,0.240294 -0.05088,1.523067 -0.041,1.868043 -0.0061,0.354956 -0.02686,1.490715 -0.03626,1.66438 -0.01698,0.164548 -0.185143,0.364954 -0.41173,0.375888 -0.277511,-0.0036 -0.474101,-0.10808 -0.495804,-0.295484 -0.0047,-0.190786 0.02253,-1.148598 0.04776,-1.573978 0.02449,-0.426315 0.0525,-1.609657 0.06711,-1.886115 -0.122345,0.01438 -0.252261,0.0419 -0.382543,0.04568 z m 6.947757,1.361289 c 0.04296,-0.925443 -0.04458,-1.664381 -0.239618,-1.706731 -0.356869,0.01907 -0.962428,1.051542 -1.027958,1.739082 -0.02612,0.424912 -0.04147,0.960188 -0.01854,1.244252 0.02835,0.243136 0.08087,0.550041 0.07102,0.753199 -0.01854,0.211737 -0.157898,0.304998 -0.322914,0.310717 -0.389235,-0.01961 -0.414105,-0.08237 -0.467382,-0.210783 -0.06711,-0.297859 -0.148007,-1.92942 -0.160273,-2.440435 0.0074,-1.046309 -0.09638,-3.394904 -0.01042,-4.9589 0.08415,-1.210929 0.28975,-1.615376 0.740956,-1.595864 0.266862,0.03327 0.397922,0.386355 0.378566,0.816014 -0.02835,0.429659 -0.103396,1.009192 -0.176442,2.153043 -0.04458,0.787941 -0.01536,1.798086 -0.04222,2.569376 0.135768,-0.525295 0.7303,-1.398406 1.49415,-1.37652 0.523448,0.07607 0.803333,1.070569 0.707014,2.864861 -0.02449,0.342097 -0.161065,1.266605 -0.197381,1.66866 -0.02091,0.267412 -0.144868,0.495315 -0.552668,0.480084 -0.26605,-0.04136 -0.394749,-0.201252 -0.386454,-0.427753 0.0249,-0.349704 0.149211,-0.971606 0.210012,-1.882302 z m 3.713886,-4.252316 c 0.252249,-0.619976 0.413313,-1.317517 0.621343,-1.306096 0.281462,0.06852 0.47726,0.557178 0.472531,0.807453 -0.01536,0.149442 -0.176462,0.709913 -0.38686,1.19381 -0.194229,0.370169 -0.58069,0.727031 -0.720044,0.723704 -0.197375,-0.03147 -0.367119,-0.196504 -0.35687,-0.485803 0.0276,-0.288345 0.275948,-0.718957 0.3699,-0.933068 z m 0.654507,5.248667 c -0.02449,0.536247 0.156315,0.832667 0.275928,0.858364 0.121155,0.009 0.284635,-0.09459 0.52662,-0.334023 0.147257,-0.149441 0.350145,-0.408726 0.578316,-0.613323 0.146512,-0.123725 0.226587,-0.183179 0.339096,-0.170842 0.205676,0.03184 0.28226,0.152319 0.272782,0.357815 -0.04627,0.375889 -0.612271,0.771289 -0.948208,1.005865 -0.181205,0.128042 -0.876758,0.637115 -1.093874,0.636162 -0.565305,-0.09999 -0.772544,-0.959719 -0.740969,-1.646793 6.76e-4,-0.0036 6.76e-4,-0.0072 6.76e-4,-0.01079 a 0.38883689,0.4686732 0 0 1 -0.161064,0.01438 c -0.07624,-0.01438 -0.145619,-0.186992 -0.140992,-0.306887 0.02165,-0.304045 0.0916,-0.363048 0.350943,-0.485803 0.0061,-0.07948 0.01042,-0.154657 0.01495,-0.234575 0.105784,-1.396032 0.594498,-2.470414 0.838066,-2.480394 0.926106,0.164547 1.461792,1.162391 1.458626,1.627262 -0.02016,0.326398 -0.02686,0.639488 -0.359231,0.88739 -0.265272,0.185571 -1.050054,0.607604 -1.200443,0.727517 z m 0.05805,-1.060588 c 0.163432,-0.09855 0.639109,-0.332118 0.778064,-0.433939 0.01536,-0.380169 -0.151187,-0.698476 -0.434232,-0.747012 -0.148007,0.01259 -0.313828,0.779849 -0.343832,1.180951 z m 4.067981,2.979523 c 0.01042,-0.143149 0.169744,-1.990779 0.181185,-2.490375 0.0074,-0.452984 -0.06001,-0.996837 -0.279879,-1.056776 -0.235275,-0.01259 -0.769384,0.630912 -0.837282,1.379847 -0.0525,1.006818 0.144124,1.717665 0.124727,2.188722 -0.02611,0.20555 -0.350138,0.260274 -0.470934,0.246948 -0.22265,-0.03615 -0.397137,-0.146025 -0.445686,-0.28072 -0.06163,-0.310718 -0.08728,-1.294696 -0.09161,-1.639654 0.0014,-1.087707 -0.101007,-1.791432 -0.07773,-2.263425 0.03714,-0.381608 0.360813,-0.58383 0.49029,-0.571925 0.309883,0.05521 0.47726,0.173719 0.492658,1.033937 0.266855,-0.538153 0.7161,-1.03347 1.157429,-0.972092 0.307515,0.06906 0.580689,0.353535 0.671495,0.855524 0.309092,-0.446798 0.887408,-0.656142 1.325988,-0.572879 0.42319,0.126064 0.60516,0.967326 0.60989,1.580164 a 33.788544,40.726036 0 0 1 -0.0323,1.596816 c -0.017,0.446311 0.007,0.934974 -0.007,1.210929 -0.0225,0.274068 -0.15355,0.498662 -0.55819,0.432051 -0.40264,-0.08704 -0.44173,-0.316903 -0.42792,-0.580503 0.0379,-0.586187 0.13742,-1.68722 0.17212,-2.2187 0.0284,-0.464385 0.0585,-1.113873 -0.21198,-1.194763 -0.275143,-0.04856 -0.425552,0.08758 -0.762666,0.468197 -0.0047,0.04766 -0.01197,1.238535 -0.0276,1.65298 -0.01772,0.445358 -0.01698,0.934002 -0.03315,1.205228 -0.0209,0.270722 -0.127866,0.488177 -0.525037,0.440593 -0.360408,-0.06564 -0.447655,-0.191757 -0.435808,-0.450124 z m 6.501671,1.046309 c -0.38844,0.374468 -0.94979,0.432986 -1.36232,0.345442 -0.41015,-0.101426 -0.62213,-0.281206 -0.6174,-0.647095 0.0453,-0.640929 0.41094,-1.085801 0.90045,-1.455504 0.39554,-0.329257 0.8357,-0.611416 0.95373,-0.693744 0.0734,-0.04856 0.14652,-0.07085 0.20725,-0.06852 -0.024,-0.363984 -0.11488,-0.763664 -0.37779,-0.845975 -0.24119,-0.05035 -0.57357,0.114734 -0.72478,0.259302 -0.0292,0.03004 -0.14248,0.170303 -0.22894,0.156996 -0.14488,-0.04046 -0.35371,-0.262162 -0.34463,-0.551461 a 0.33001792,0.39777747 0 0 1 0.15435,-0.318305 c 0.26764,-0.176957 1.0686,-0.409213 1.37928,-0.342584 0.26449,0.07427 0.7311,0.275955 0.96834,1.926075 0.10578,0.674215 0.0609,1.583976 0.0485,1.780948 -0.0134,0.206035 -0.0746,0.764635 -0.21434,1.13529 -0.0509,0.115094 -0.29845,0.105564 -0.39319,0.0838 -0.14487,-0.03957 -0.40108,-0.150881 -0.39239,-0.469618 0.0153,-0.09999 0.0292,-0.195084 0.0438,-0.295018 z m -0.87203,-1.028217 c -0.15948,0.216015 -0.18908,0.335911 -0.20054,0.507203 -0.006,0.15124 0.0647,0.248386 0.19344,0.281692 0.38765,0.07373 0.63239,-0.250276 0.71846,-0.298345 0.12547,-0.05233 0.24277,-0.09801 0.22423,-0.07751 0.0202,-0.328772 0.0463,-0.743217 0.047,-1.157644 -0.25067,0.136134 -0.72123,0.411099 -0.98256,0.744656 z m 2.90306,-5.254853 c 0.19421,0.07895 0.44252,0.295952 0.44568,0.558599 -0.0104,0.273114 -0.088,0.774149 -0.1319,1.445523 -0.0252,0.559067 0.10772,2.454695 0.10429,3.057067 6.8e-4,0.798408 0.16818,1.875649 0.15871,2.183974 -0.0269,0.305951 -0.20213,0.397774 -0.46819,0.327837 -0.24672,-0.07428 -0.52898,-0.232669 -0.54121,-0.509594 0,-0.327352 -0.0662,-1.304192 -0.0616,-2.256286 -0.001,-0.953533 -0.19185,-2.654078 -0.12398,-3.951129 0.06,-0.814593 0.27672,-0.975419 0.61818,-0.855991 z m 1.61653,0.631882 c 0.19343,0.08236 0.44331,0.295467 0.44726,0.541947 -0.009,0.255975 -0.0856,0.723705 -0.12786,1.364615 -0.0225,0.533855 0.1125,2.386664 0.10861,2.986195 10e-4,0.794596 0.16817,1.892768 0.15712,2.208233 -0.0269,0.312606 -0.20132,0.404428 -0.46739,0.327352 -0.24594,-0.08093 -0.52897,-0.249321 -0.54043,-0.532902 0,-0.335444 -0.064,-1.329889 -0.06,-2.27675 -10e-4,-0.947814 -0.19579,-2.611259 -0.13099,-3.83742 0.0573,-0.769383 0.27316,-0.90737 0.61385,-0.78127 z m -23.043228,2.522259 c -0.0209,0.387308 0.03166,0.581925 0.326073,0.594297 0.303971,-0.0054 0.574378,-0.207456 0.727141,-0.297391 0.140998,-0.09567 0.385683,-0.481991 0.629252,-0.491504 0.242777,0.01438 0.370285,0.184132 0.366334,0.349238 -0.08803,0.616649 -1.322437,1.089613 -1.966681,1.112452 -0.882678,-0.04245 -1.011363,-0.56432 -0.985316,-1.109126 0.186725,-2.044081 1.727063,-3.735094 2.049977,-3.786006 0.225011,0.01079 0.370671,0.148903 0.350936,0.585719 -0.02253,0.324978 -0.09311,0.637098 -0.330809,0.708959 -0.692407,0.232184 -1.10572,1.588257 -1.166907,2.333362 z"
       fill="#ffffff"
       id="path70"
       style="stroke-width:0.433393" />
    <path
       d="m 63.732544,31.824565 c 0.3687,0.03183 0.56806,0.367813 0.54515,0.74845 -0.0104,0.168864 -0.11414,0.946393 -0.15948,1.856622 -0.0501,0.994445 -0.14562,2.091648 -0.16974,2.492768 -0.017,0.285954 -0.12712,0.523855 -0.3995,0.517201 -0.38647,-0.009 -0.50331,-0.33021 -0.4887,-0.573346 0.0134,-0.232668 0.0276,-1.377959 0.0585,-1.896114 0.03,-0.507203 -0.001,-2.23154 0.0161,-2.538444 0.0178,-0.285001 0.32568,-0.630444 0.59767,-0.607137 z m -0.25068,6.168894 c 0.42003,0.03184 0.76268,0.664702 0.7169,0.949235 -0.0363,0.226482 -0.38845,0.383495 -0.75638,0.360189 -0.49975,-0.03236 -0.76029,-0.227921 -0.72872,-0.612837 0.0238,-0.281693 0.4753,-0.718958 0.7682,-0.696587 z"
       fill="#ffffff"
       id="path74"
       style="stroke-width:0.433393" />
    <path
       d="m 65.291434,28.006674 h 1.18231 v 0.208878 h -0.49148 v 1.545419 h -0.19935 v -1.545419 h -0.49148 z m 1.35719,1.754297 v -1.754783 h 0.28226 l 0.41883,1.483576 0.41489,-1.483576 h 0.27989 v 1.754783 h -0.18751 v -1.035825 l 0.001,-0.177496 c 0.001,-0.08272 0.003,-0.171741 0.003,-0.266927 l -0.41568,1.479763 h -0.19509 l -0.41805,-1.479763 v 0.05377 c 0,0.04334 6.8e-4,0.108979 0.003,0.196504 10e-4,0.08758 0.003,0.15268 0.003,0.193663 v 1.035825 h -0.18887 z m -1.35086,8.562698 h 0.94465 v 0.167426 h -0.39279 v 1.236628 h -0.15948 v -1.236628 h -0.39238 z m 1.08479,1.404108 v -1.40364 h 0.2258 l 0.33476,1.18667 0.33238,-1.18667 h 0.22343 v 1.40364 h -0.1496 V 38.89939 c 0,-0.02896 0,-0.07607 0.001,-0.142788 6.8e-4,-0.06618 0.001,-0.137034 0.001,-0.21269 l -0.33238,1.183828 h -0.15645 l -0.33397,-1.183828 v 0.0428 c 0,0.03417 0,0.08704 10e-4,0.156995 0.001,0.07049 0.003,0.122826 0.003,0.155556 v 0.828387 z"
       id="path76"
       style="stroke-width:0.433393" />
  </g>
</svg>
